<svg width="16" height="14" viewBox="0 0 16 14" fill="none" xmlns="http://www.w3.org/2000/svg">
<path d="M15.5488 6.00997C15.3895 5.79006 15.1795 5.61182 14.9367 5.49039C14.6938 5.36896 14.4252 5.30793 14.1538 5.31247H13.9738V4.18747C13.9738 3.963 13.9291 3.74077 13.8421 3.5338C13.7552 3.32683 13.6279 3.13928 13.4676 2.98214C13.3073 2.82499 13.1173 2.7014 12.9086 2.61861C12.7 2.53581 12.4769 2.49548 12.2525 2.49997H8.6075C8.47112 2.49917 8.33875 2.45373 8.23063 2.3706L5.98063 0.615596C5.67268 0.378476 5.29492 0.249919 4.90625 0.249971H1.84625C1.62182 0.245482 1.39875 0.285814 1.1901 0.368607C0.981456 0.451399 0.791423 0.574988 0.631131 0.732136C0.47084 0.889284 0.343513 1.07683 0.256606 1.2838C0.169698 1.49077 0.124957 1.713 0.125002 1.93747V12.0625C0.124513 12.3738 0.214398 12.6787 0.383752 12.94C0.539399 13.1874 0.755121 13.3914 1.01083 13.5331C1.26655 13.6747 1.55394 13.7493 1.84625 13.75H12.5338C12.901 13.7591 13.2613 13.6482 13.5597 13.434C13.8582 13.2198 14.0786 12.914 14.1875 12.5631L15.7963 7.5006C15.8737 7.24999 15.8916 6.98479 15.8487 6.72603C15.8057 6.46728 15.703 6.22211 15.5488 6.00997ZM1.25 1.93747C1.24986 1.86067 1.26545 1.78466 1.29581 1.71412C1.32616 1.64358 1.37064 1.58 1.4265 1.5273C1.48236 1.4746 1.54842 1.4339 1.62061 1.4077C1.6928 1.3815 1.76959 1.37036 1.84625 1.37497H4.90625C5.04449 1.37496 5.1789 1.42042 5.28875 1.50435L7.53875 3.25935C7.84457 3.49643 8.22055 3.62505 8.6075 3.62497H12.2525C12.3292 3.62036 12.406 3.6315 12.4781 3.6577C12.5503 3.6839 12.6164 3.7246 12.6723 3.7773C12.7281 3.83 12.7726 3.89358 12.8029 3.96412C12.8333 4.03466 12.8489 4.11068 12.8488 4.18747V5.31247H3.84875C3.48433 5.30701 3.12794 5.41968 2.83288 5.63362C2.53782 5.84756 2.31996 6.15128 2.21188 6.49935L1.25 9.55372V1.93747ZM14.75 7.1631L13.1413 12.2256C13.1051 12.3452 13.0303 12.4493 12.9284 12.5216C12.8266 12.594 12.7035 12.6303 12.5788 12.625H1.89125C1.76439 12.6247 1.64068 12.5854 1.53688 12.5125L3.33688 6.83685C3.37299 6.71727 3.44787 6.61312 3.54972 6.54081C3.65156 6.46849 3.77458 6.43214 3.89938 6.43747H14.1538C14.2485 6.43681 14.3422 6.45835 14.4271 6.50035C14.5121 6.54235 14.5861 6.60365 14.6431 6.67935C14.6967 6.74647 14.7342 6.82497 14.7527 6.90882C14.7712 6.99267 14.7703 7.07965 14.75 7.1631Z" fill="black"/>
</svg>
