<svg width="16" height="13" viewBox="0 0 15 13" fill="none" xmlns="http://www.w3.org/2000/svg">
<path d="M13.1518 2.46462H8.40426C8.21155 2.46462 8.02331 2.38549 7.89332 2.25099L6.41199 0.690527C6.05592 0.335596 5.56874 0.150206 5.07532 0.153047H1.84816C0.829129 0.153018 0 0.982147 0 2.00115V10.9989C0 12.0179 0.829129 12.847 1.84816 12.847H13.1586H13.1603C14.1788 12.8425 15.0045 12.0094 15 10.9932V4.31276C15 3.29372 14.1708 2.46462 13.1518 2.46462ZM13.8696 10.9955C13.8713 11.3911 13.5509 11.715 13.1575 11.7167H1.84816C1.45254 11.7167 1.13039 11.3945 1.13039 10.9989V2.00115C1.13039 1.60553 1.45254 1.28338 1.84816 1.28279H5.09003C5.09624 1.28279 5.10245 1.28279 5.10869 1.28279C5.29745 1.28279 5.48059 1.35797 5.60378 1.48005L7.0772 3.03316C7.42308 3.39035 7.90689 3.59495 8.40426 3.59495H13.1518C13.5474 3.59495 13.8696 3.9171 13.8696 4.31273V10.9955H13.8696Z" fill="black"/>
</svg>
